<svg xmlns="http://www.w3.org/2000/svg" width="15" height="20" fill="none" viewBox="0 0 15 20">
    <path fill="#FFB912" d="M13.777 19.983c-.185 0-.367-.054-.523-.154l-5.761-3.707-5.761 3.707c-.146.094-.315.147-.489.153-.173.007-.345-.034-.498-.117-.152-.083-.28-.206-.368-.355-.089-.15-.136-.32-.136-.494V.967c0-.256.102-.502.283-.684C.706.102.952 0 1.208 0h12.57c.256 0 .502.102.683.283.181.182.283.428.283.684v18.049c0 .256-.102.502-.283.684-.181.18-.427.283-.684.283zm-6.284-5.979c.185 0 .367.054.523.154l4.794 3.085V1.934H2.176v15.31l4.793-3.086c.156-.1.338-.154.524-.154zm3.048-2.053V4.498c0-.122-.048-.24-.134-.326-.087-.086-.204-.135-.326-.135H4.904c-.122 0-.239.049-.325.135-.087.087-.135.204-.135.326v7.452c0 .082.022.163.064.234.043.072.103.13.176.17.073.04.154.059.237.056.083-.003.163-.028.233-.073l2.09-1.345c.074-.048.16-.073.249-.073.088 0 .175.025.249.073l2.09 1.345c.07.045.15.07.232.073.083.003.165-.017.238-.056.072-.04.133-.098.175-.17.042-.07.064-.152.064-.235z"/>
</svg>
