<svg xmlns="http://www.w3.org/2000/svg" width="84" height="80" fill="none" viewBox="0 0 84 80">
    <path fill="#fff" d="M0 30C0 13.431 13.431 0 30 0h23.019c16.568 0 30 13.431 30 30v19.875c0 16.617-13.508 30.069-30.125 30l-11.385-.048H30c-16.569 0-30-13.431-30-30V30z"/>
    <path stroke="#0E0F0F" stroke-opacity=".2" d="M41.511 79.327H30C13.708 79.327.5 66.12.5 49.827V30C.5 13.708 13.708.5 30 .5h23.019c16.292 0 29.5 13.208 29.5 29.5v19.875c0 16.34-13.283 29.568-29.623 29.5l-11.385-.048z"/>
    <path fill="#002366" d="M57.414 50.927l-4.54 4.504c-.67.687-1.559.92-2.424.921-3.825-.114-7.442-1.994-10.41-3.923-4.875-3.546-9.346-7.942-12.153-13.255-1.076-2.228-2.34-5.07-2.219-7.558.01-.935.263-1.853.922-2.456l4.54-4.538c.943-.802 1.854-.524 2.458.41l3.652 6.926c.384.82.164 1.7-.41 2.286l-1.672 1.672c-.104.14-.17.302-.17.477.64 2.483 2.584 4.771 4.3 6.346 1.717 1.575 3.562 3.709 5.957 4.214.296.082.658.111.87-.086l1.946-1.978c.67-.509 1.64-.757 2.355-.342h.034l6.588 3.89c.968.606 1.068 1.778.376 2.49z"/>
</svg>
