<svg xmlns="http://www.w3.org/2000/svg" width="84" height="80" fill="none" viewBox="0 0 84 80">
    <path fill="#fff" d="M0 30C0 13.431 13.431 0 30 0h23.019c16.568 0 30 13.431 30 30v19.875c0 16.617-13.508 30.069-30.125 30l-11.385-.048H30c-16.569 0-30-13.431-30-30V30z"/>
    <path stroke="#0E0F0F" stroke-opacity=".2" d="M41.511 79.327H30C13.708 79.327.5 66.12.5 49.827V30C.5 13.708 13.708.5 30 .5h23.019c16.292 0 29.5 13.208 29.5 29.5v19.875c0 16.34-13.283 29.568-29.623 29.5l-11.385-.048z"/>
    <path fill="#002366" d="M51.74 35.43c0-1.35-.265-2.685-.782-3.931-.516-1.247-1.273-2.38-2.226-3.333-.954-.954-2.087-1.71-3.333-2.227-1.246-.516-2.582-.782-3.931-.782-1.35 0-2.685.266-3.931.782-1.247.516-2.379 1.273-3.333 2.227-.954.954-1.71 2.086-2.227 3.333-.516 1.246-.782 2.582-.782 3.93 0 2.036.602 3.93 1.622 5.526h-.012c3.464 5.422 8.663 13.552 8.663 13.552l8.662-13.552h-.01c1.058-1.649 1.62-3.566 1.62-5.525zm-10.272 4.402c-1.168 0-2.288-.464-3.113-1.29-.826-.825-1.29-1.945-1.29-3.112 0-1.168.464-2.288 1.29-3.113.825-.826 1.945-1.29 3.113-1.29 1.167 0 2.287.464 3.113 1.29.825.825 1.29 1.945 1.29 3.113 0 1.167-.465 2.287-1.29 3.113-.826.825-1.946 1.29-3.113 1.29z"/>
</svg>
