<svg xmlns="http://www.w3.org/2000/svg" width="81" height="19" fill="none" viewBox="0 0 81 19">
    <path fill="#062A42" d="M26.328.912L20.28 18h-2.52L13.464 5.712 9.12 18H6.6L.576.912H3.72l4.272 12.744L12.432.912h2.208l4.344 12.84L23.352.912h2.976zm11.589 11.184h-8.352c.064 1.296.384 2.256.96 2.88.592.608 1.464.912 2.616.912 1.328 0 2.56-.432 3.696-1.296l.864 2.064c-.576.464-1.288.84-2.136 1.128-.832.272-1.68.408-2.544.408-1.984 0-3.544-.56-4.68-1.68-1.136-1.12-1.704-2.656-1.704-4.608 0-1.232.248-2.328.744-3.288s1.192-1.704 2.088-2.232c.896-.544 1.912-.816 3.048-.816 1.664 0 2.976.544 3.936 1.632.976 1.072 1.464 2.552 1.464 4.44v.456zm-5.328-4.368c-.8 0-1.456.24-1.968.72-.496.464-.816 1.144-.96 2.04h5.64c-.096-.912-.376-1.6-.84-2.064-.448-.464-1.072-.696-1.872-.696zm12.508 10.464c-2.192 0-3.936-.512-5.232-1.536l.84-2.112c1.296.96 2.776 1.44 4.44 1.44.72 0 1.272-.12 1.656-.36.4-.24.6-.576.6-1.008 0-.368-.136-.656-.408-.864-.272-.224-.736-.416-1.392-.576l-2.016-.456c-2.208-.48-3.312-1.608-3.312-3.384 0-.736.208-1.384.624-1.944.416-.576 1-1.024 1.752-1.344.752-.32 1.624-.48 2.616-.48.864 0 1.696.136 2.496.408.8.256 1.504.632 2.112 1.128l-.888 2.04C47.769 8.248 46.521 7.8 45.241 7.8c-.688 0-1.224.128-1.608.384-.384.256-.576.608-.576 1.056 0 .352.112.632.336.84.24.208.64.384 1.2.528l2.064.456c1.2.272 2.072.696 2.616 1.272.56.56.84 1.296.84 2.208 0 1.12-.448 2.008-1.344 2.664-.896.656-2.12.984-3.672.984zM52.88.336h2.976V18H52.88V.336zm10.274 7.8v5.424c0 1.424.664 2.136 1.992 2.136.368 0 .768-.064 1.2-.192v2.376c-.528.192-1.168.288-1.92.288-1.376 0-2.432-.384-3.168-1.152-.736-.768-1.104-1.872-1.104-3.312V8.136h-2.328V5.88h2.328V2.928l3-1.008v3.96h3.216v2.256h-3.216zM76.912 18l-5.304-5.592V18h-2.976V.336h2.976v10.896L76.6 5.904h3.624l-5.448 5.784L80.656 18h-3.744z"/>
</svg>
