<svg xmlns="http://www.w3.org/2000/svg" width="84" height="80" fill="none" viewBox="0 0 84 80">
    <path fill="#fff" d="M0 30C0 13.431 13.431 0 30 0h23.019c16.568 0 30 13.431 30 30v19.875c0 16.617-13.508 30.069-30.125 30l-11.385-.048H30c-16.569 0-30-13.431-30-30V30z"/>
    <path stroke="#0E0F0F" stroke-opacity=".2" d="M41.511 79.327H30C13.708 79.327.5 66.12.5 49.827V30C.5 13.708 13.708.5 30 .5h23.019c16.292 0 29.5 13.208 29.5 29.5v19.875c0 16.34-13.283 29.568-29.623 29.5l-11.385-.048z"/>
    <path fill="#002366" d="M55.994 28.817L42.884 40.45c-.305.27-.698.42-1.106.42-.407 0-.8-.15-1.105-.42L27.508 28.823c.315-.095.641-.144.97-.144h26.566c.322 0 .642.046.95.138zm2.251 2.29c.078.28.12.574.12.879v16.531c0 .877-.35 1.718-.973 2.338-.623.62-1.467.969-2.348.969H28.478c-.88 0-1.725-.349-2.348-.968-.623-.62-.973-1.462-.973-2.339V31.986c0-.299.04-.596.12-.883L38.464 42.92c.912.81 2.091 1.257 3.314 1.257 1.222 0 2.401-.447 3.314-1.257l13.153-11.814z"/>
</svg>
