<svg xmlns="http://www.w3.org/2000/svg" width="542" height="355" fill="none" viewBox="0 0 542 355">
    <rect width="542" height="355" fill="#355389" rx="10"/>
    <path fill="#FAE0B2" fill-rule="evenodd" d="M123.831 247.543l-3.602-2.048c-.996 1.589-2.208 3.016-3.384 4.092-.982.897-2.49.875-3.446-.049l-.116-.112c-1.054-1.019-1.029-2.725.066-3.7 1.116-.992 2.199-2.233 3.041-3.722 1.225-2.165 1.23-4.123-.287-4.985-1.44-.82-3.039-.119-5.578 2.154-3.665 3.292-7.13 4.99-10.808 2.897-3.336-1.896-4.62-5.741-3.115-10.261L93 229.761l2.107-3.726 3.337 1.898c.843-1.347 1.67-2.379 2.461-3.186.965-.986 2.546-.999 3.538-.04 1.026.992 1.031 2.639.006 3.634-.768.743-1.602 1.728-2.361 3.071-1.398 2.47-.787 3.872.274 4.476 1.251.712 2.8-.165 5.841-2.707 4.151-3.619 7.268-4.258 10.68-2.318 3.375 1.918 4.902 5.951 3.187 10.755l3.868 2.199-2.107 3.726z" clip-rule="evenodd"/>
    <path fill="#466EB6" fill-rule="evenodd" d="M297.083 305.517c9.082-12.257 16.378-12.365 16.378-12.365s3.309-21.534.668-30.693c-2.641-9.161-14.585-1.129-14.585-1.129s15.836-31.124 9.341-34.621c-12.099-6.513-31.156 26.503-31.156 26.503s4.463-14.533-4.093-14.477c-12.9.079-14.017 33.399-14.017 33.399s-2.545-6.564-10.505-2.803c-8.573 4.051-10.895 28.445-11.383 47.296h45.198c6.467-3.971 11.749-7.864 14.154-11.11z" clip-rule="evenodd"/>
    <path fill="#355389" fill-rule="evenodd" d="M279.31 250.557s.532-16.559-8.024-16.503c-12.903.079-11.667 38.08-11.667 38.08s-5.39-10.751-13.35-6.99c-8.736 4.128-9.774 31.089-9.431 51.483h15.014l57.033-89.918c-12.099-6.513-29.575 23.848-29.575 23.848z" clip-rule="evenodd"/>
    <path fill="#466EB6" fill-rule="evenodd" d="M349.564 315.551s41.187 4.754 51.166 1.251c9.976-3.504 3.369-9.106 3.369-9.106s21.1-2.704 23.136-9.001c2.034-6.297-7.949-6.336-7.949-6.336s21.18-11.717 18.803-16.261c-4.428-8.462-28.194 3.084-28.194 3.084s8.204-6.614 3.265-9.919c-7.45-4.988-21.019 13.734-21.019 13.734s1.086-4.767-4.95-5.711c-10.829-1.691-37.627 38.265-37.627 38.265z" clip-rule="evenodd"/>
    <path fill="#233E6E" fill-rule="evenodd" d="M387.18 273.77c6.034.943 4.961 9.227 4.961 9.227s14.033-22.329 21.483-17.344c4.939 3.308-1.79 12.619-1.79 12.619s21.827-10.636 26.255-2.174l-84.58 36.805c3.105-4.681 23.557-40.712 33.671-39.133z" clip-rule="evenodd"/>
    <path fill="#466EB6" fill-rule="evenodd" d="M349.309 316.151s37.48-26.147 42.872-37.643c5.391-11.496-4.935-10.537-4.935-10.537s15.419-20.358 11.76-27.391c-3.659-7.033-12.078 1.49-12.078 1.49s7.797-27.997 1.926-29.774c-10.935-3.311-21.633 32.14-21.633 32.14s-4.083-19.614-11.051-18.157c-10.509 2.199-.025 31.197-.025 31.197s-3.098-9.446-8.971-5.065c-10.537 7.863 2.135 63.74 2.135 63.74z" clip-rule="evenodd"/>
    <path fill="#233E6E" fill-rule="evenodd" d="M336.92 252.865c6.619-3.139 7.947-9.743 7.947-9.743s.044-16.397 10.553-18.596c6.968-1.457 11.845 11.717 11.845 11.717s10.654-27.258 21.589-23.947l-39.657 103.416c-1.383-6.592-20.157-59.107-12.277-62.847z" clip-rule="evenodd"/>
    <path fill="#F48C7F" fill-rule="evenodd" d="M337.754 316.233h-75.578c-2.41 0-4.365-1.96-4.365-4.377 0-2.416 1.955-4.374 4.365-4.374h75.578c2.41 0 4.365 1.958 4.365 4.374 0 2.417-1.955 4.377-4.365 4.377z" clip-rule="evenodd"/>
    <path fill="#F47458" fill-rule="evenodd" d="M350.974 307.742h-75.578c-2.413 0-4.365-1.96-4.365-4.377 0-2.416 1.952-4.376 4.365-4.376h75.578c2.41 0 4.362 1.96 4.362 4.376 0 2.417-1.952 4.377-4.362 4.377z" clip-rule="evenodd"/>
    <path fill="#F48C7F" fill-rule="evenodd" d="M340.397 299.696h-75.578c-2.41 0-4.363-1.96-4.363-4.376 0-2.417 1.953-4.375 4.363-4.375h75.578c2.41 0 4.365 1.958 4.365 4.375 0 2.416-1.955 4.376-4.365 4.376z" clip-rule="evenodd"/>
    <path fill="#F47458" fill-rule="evenodd" d="M331.586 290.981h-75.578c-2.41 0-4.365-1.958-4.365-4.375 0-2.416 1.955-4.376 4.365-4.376h75.578c2.41 0 4.363 1.96 4.363 4.376 0 2.417-1.953 4.375-4.363 4.375z" clip-rule="evenodd"/>
    <path fill="#FAE0B2" fill-rule="evenodd" d="M385.12 280.887c0 20.926-16.918 37.89-37.788 37.89-20.869 0-37.788-16.964-37.788-37.89 0-20.926 16.919-37.891 37.788-37.891 20.87 0 37.788 16.965 37.788 37.891z" clip-rule="evenodd"/>
    <path fill="#F7CC7F" fill-rule="evenodd" d="M379.042 280.887c0 17.559-14.196 31.796-31.71 31.796-17.512 0-31.708-14.237-31.708-31.796 0-17.56 14.196-31.794 31.708-31.794 17.514 0 31.71 14.234 31.71 31.794z" clip-rule="evenodd"/>
    <path fill="#fff" fill-rule="evenodd" d="M337.516 301.301l1.806-4.989c-2.215-.917-4.266-2.145-5.869-3.402-1.337-1.05-1.632-2.959-.675-4.366l.114-.17c1.056-1.55 3.208-1.882 4.666-.707 1.487 1.199 3.279 2.302 5.328 3.047 2.986 1.087 5.447.672 6.207-1.429.722-1.995-.499-3.865-3.9-6.588-4.921-3.929-7.798-7.946-5.955-13.039 1.671-4.624 6.23-7.067 12.235-6.132l1.803-4.99 5.134 1.866-1.671 4.623c1.873.776 3.347 1.603 4.53 2.428 1.444 1.009 1.801 3.005.807 4.464-1.027 1.509-3.099 1.868-4.565.785-1.1-.813-2.518-1.655-4.367-2.328-3.404-1.237-5.036-.167-5.568 1.303-.626 1.733.807 3.504 4.653 6.804 5.436 4.472 6.907 8.275 5.196 13.002-1.691 4.675-6.434 7.468-12.837 6.328l-1.937 5.358-5.135-1.868z" clip-rule="evenodd"/>
    <path fill="#233E6E" fill-rule="evenodd" d="M211.054 314.694s-58.722-29.034-68.821-44.174c-10.099-15.143 4.746-16.001 4.746-16.001s-26.204-25.554-22.518-36.314c3.687-10.757 17.445-.476 17.445-.476s-17.033-38.025-9.088-41.805c14.798-7.042 35.557 33.424 35.557 33.424s-4.461-17.579 5.729-17.008c15.368.862 14.733 40.627 14.733 40.627s1.736-15.247 10.998-10.295c16.619 8.886 11.219 92.022 11.219 92.022z" clip-rule="evenodd"/>
    <path fill="#466EB6" fill-rule="evenodd" d="M203.18 216.521c-7.234-4.024-14.438 7.739-14.438 7.739s.73-31.058-14.638-31.92c-10.19-.571-5.729 17.008-5.729 17.008s-20.759-40.466-35.557-33.424l78.302 138.124c.554-9.647 6.388-89.555-7.94-97.527z" clip-rule="evenodd"/>
    <path fill="#233E6E" fill-rule="evenodd" d="M209.534 315.053s-48.025 5.982-60.46.651c-12.435-5.33-3.523-11.913-3.523-11.913s-26.701-5.263-28.761-13.476c-2.06-8.211 10.687-7.406 10.687-7.406s-26.032-16.775-22.609-22.371c6.376-10.422 35.723 6.359 35.723 6.359s-9.906-9.146-3.319-12.942c9.935-5.724 25.653 19.338 25.653 19.338s-.977-6.178 6.808-6.861c13.966-1.231 39.801 48.621 39.801 48.621z" clip-rule="evenodd"/>
    <path fill="#466EB6" fill-rule="evenodd" d="M170.048 261.943c-7.784.683-7.123 11.35-7.123 11.35s-16.003-29.708-25.937-23.984c-6.588 3.797 1.206 16.263 1.206 16.263s-26.95-15.456-33.326-5.034l104.814 54.248c-3.565-6.242-26.588-53.992-39.634-52.843z" clip-rule="evenodd"/>
    <path fill="#13375B" fill-rule="evenodd" d="M109.616 317.527c0 .747.604 1.354 1.35 1.354h336.592c.745 0 1.35-.607 1.35-1.354 0-.748-.605-1.354-1.35-1.354H110.966c-.746 0-1.35.606-1.35 1.354z" clip-rule="evenodd"/>
    <path fill="#466EB6" fill-rule="evenodd" d="M345.204 82.064l-1.711 4.28-7.173-2.003-3.272 5.948-5.611-.618-.313 2.848 7.505.827 3.101-5.636 7.46 2.082 2.578-6.44-2.564-1.288z" clip-rule="evenodd"/>
    <path fill="#96D9C9" fill-rule="evenodd" d="M370.711 196.704l1.763-4.386c-1.941-.886-3.729-2.044-5.117-3.212-1.158-.977-1.363-2.688-.466-3.91l.108-.147c.987-1.347 2.916-1.577 4.176-.483 1.286 1.113 2.847 2.152 4.648 2.879 2.626 1.061 4.829.772 5.57-1.076.706-1.752-.323-3.457-3.265-5.988-4.26-3.653-6.694-7.32-4.893-11.798 1.634-4.063 5.768-6.095 11.085-5.074l1.761-4.386 4.512 1.823-1.631 4.063c1.644.752 2.928 1.533 3.958 2.306 1.253.944 1.506 2.732.576 3.999-.961 1.311-2.815 1.565-4.088.555-.954-.758-2.188-1.553-3.815-2.21-2.993-1.209-4.479-.307-4.998.986-.612 1.523.609 3.144 3.929 6.203 4.701 4.153 5.891 7.586 4.22 11.739-1.652 4.11-5.961 6.447-11.628 5.23l-1.893 4.71-4.512-1.823z" clip-rule="evenodd"/>
    <path fill="#FAE0B2" fill-rule="evenodd" d="M273.856 316.182h-88.771c-3.537 0-6.404-2.875-6.404-6.421 0-3.547 2.867-6.42 6.404-6.42h88.771c3.538 0 6.406 2.873 6.406 6.42 0 3.546-2.868 6.421-6.406 6.421z" clip-rule="evenodd"/>
    <path fill="#F7CC7F" fill-rule="evenodd" d="M287.199 303.471H203.63c-3.538 0-6.404-2.875-6.404-6.42 0-3.548 2.866-6.423 6.404-6.423h83.569c3.538 0 6.403 2.875 6.403 6.423 0 3.545-2.865 6.42-6.403 6.42z" clip-rule="evenodd"/>
    <path fill="#FAE0B2" fill-rule="evenodd" d="M275.294 290.623h-79.941c-3.456 0-6.258-2.809-6.258-6.275v-.295c0-3.466 2.802-6.275 6.258-6.275h79.941c3.457 0 6.258 2.809 6.258 6.275v.295c0 3.466-2.801 6.275-6.258 6.275z" clip-rule="evenodd"/>
    <path fill="#F7CC7F" fill-rule="evenodd" d="M275.215 277.813H194.9c-3.397 0-6.151-2.762-6.151-6.167v-.509c0-3.407 2.754-6.167 6.151-6.167h80.315c3.398 0 6.151 2.76 6.151 6.167v.509c0 3.405-2.753 6.167-6.151 6.167z" clip-rule="evenodd"/>
    <path fill="#FAE0B2" fill-rule="evenodd" d="M277.861 265.726h-81.052c-3.537 0-6.404-2.875-6.404-6.422 0-3.546 2.867-6.421 6.404-6.421h81.052c3.535 0 6.403 2.875 6.403 6.421 0 3.547-2.868 6.422-6.403 6.422z" clip-rule="evenodd"/>
    <path fill="#F7CC7F" fill-rule="evenodd" d="M274.362 253.044h-81.051c-3.537 0-6.404-2.873-6.404-6.421 0-3.545 2.867-6.42 6.404-6.42h81.051c3.536 0 6.403 2.875 6.403 6.42 0 3.548-2.867 6.421-6.403 6.421zM278.423 228.235h-77.636c-3.467 0-6.277-2.818-6.277-6.293v-.253c0-3.477 2.81-6.295 6.277-6.295h77.636c3.466 0 6.276 2.818 6.276 6.295v.253c0 3.475-2.81 6.293-6.276 6.293z" clip-rule="evenodd"/>
    <path fill="#FAE0B2" fill-rule="evenodd" d="M285.379 240.584h-74.585c-3.403 0-6.161-2.767-6.161-6.18v-.485c0-3.411 2.758-6.178 6.161-6.178h74.585c3.403 0 6.161 2.767 6.161 6.178v.485c0 3.413-2.758 6.18-6.161 6.18z" clip-rule="evenodd"/>
    <path fill="#F48C7F" fill-rule="evenodd" d="M199.072 252.61c15.265 14.115 16.228 37.967 2.148 53.275-14.078 15.306-37.865 16.27-53.131 2.154-15.265-14.117-16.227-37.969-2.148-53.275 14.078-15.308 37.866-16.272 53.131-2.154z" clip-rule="evenodd"/>
    <path fill="#F7CC7F" fill-rule="evenodd" d="M194.972 257.068c12.81 11.844 13.617 31.86 1.803 44.705-11.814 12.844-31.775 13.653-44.585 1.806-12.809-11.844-13.617-31.86-1.803-44.703 11.814-12.846 31.775-13.655 44.585-1.808z" clip-rule="evenodd"/>
    <path fill="#fff" fill-rule="evenodd" d="M194.274 290.204c.725.955.675 2.294-.121 3.191-1.563 1.759-4.117 3.887-7.326 5.468-4.693 2.311-10.085 3.016-15.174 1.274-3.181-1.089-6.212-3.314-8.493-6.35l-2.774 1.365c-.942.463-2.082.075-2.544-.871l-.035-.073c-.463-.943-.074-2.085.868-2.551l2.276-1.12c-.455-.749-.771-1.212-.98-1.64-.349-.714-.697-1.605-1.009-2.602l-2.347 1.156c-.943.463-2.082.072-2.544-.871-.463-.946-.074-2.088.869-2.554l2.844-1.4c-.824-3.664-.69-7.359.395-10.548 1.847-5.424 5.916-9.549 10.823-11.965 2.861-1.409 5.271-1.978 7.245-2.192 1.372-.15 2.616.816 2.815 2.187l.006.042c.206 1.42-.789 2.723-2.206 2.919-1.612.223-3.493.735-5.626 1.784-3.129 1.541-5.77 4.081-7.072 7.73-.724 2.126-.919 4.613-.192 6.999l16.002-7.878c.942-.463 2.082-.075 2.544.871.463.945.074 2.088-.868 2.551l-16.714 8.228c.313.82.626 1.638.871 2.139.314.641.628 1.283 1.118 2.103l16.749-8.244c.962-.474 2.125-.077 2.598.889.473.965.075 2.132-.887 2.606l-16.038 7.893c1.511 1.824 3.379 3.116 5.288 3.771 3.782 1.234 7.116.833 10.672-.918 2.167-1.067 3.926-2.412 5.238-3.677 1.08-1.039 2.821-.907 3.729.288z" clip-rule="evenodd"/>
    <path fill="#86B1F2" fill-rule="evenodd" d="M194.27 179.148c.499.812.356 1.864-.341 2.51-1.369 1.27-3.549 2.751-6.203 3.752-3.884 1.46-8.194 1.601-12.078-.167-2.428-1.105-4.65-3.096-6.217-5.669l-2.295.862c-.78.293-1.649-.101-1.942-.884l-.022-.06c-.293-.78.102-1.653.882-1.946l1.883-.709c-.302-.627-.515-1.017-.648-1.372-.221-.589-.427-1.32-.596-2.131l-1.942.731c-.78.293-1.649-.103-1.942-.885-.292-.782.102-1.653.882-1.947l2.354-.886c-.369-2.957.02-5.863 1.122-8.298 1.875-4.138 5.405-7.081 9.465-8.609 2.366-.891 4.313-1.154 5.888-1.171 1.094-.011 2.002.847 2.054 1.944l.001.034c.054 1.137-.832 2.089-1.966 2.135-1.29.051-2.813.309-4.579.974-2.589.974-4.868 2.774-6.177 5.555-.735 1.623-1.08 3.57-.69 5.51l13.239-4.982c.78-.294 1.65.102 1.942.884.293.782-.102 1.654-.882 1.947l-13.827 5.204c.184.671.368 1.342.523 1.756.199.53.397 1.061.721 1.747l13.857-5.215c.796-.299 1.683.105 1.982.903.299.799-.104 1.689-.9 1.988l-13.268 4.994c1.052 1.557 2.428 2.721 3.885 3.384 2.891 1.268 5.553 1.209 8.495.1 1.793-.675 3.285-1.601 4.418-2.496.933-.739 2.297-.499 2.922.513z" clip-rule="evenodd"/>
    <path fill="#F7CC7F" fill-rule="evenodd" d="M350.125 150.215l4.224-2.144 4.158 2.274c.473.259 1.036-.139.954-.673l-.73-4.691 3.442-3.261c.393-.372.189-1.033-.344-1.119l-4.674-.755-2.03-4.289c-.231-.488-.921-.499-1.165-.018l-2.162 4.225-4.694.61c-.537.069-.759.723-.379 1.107l3.338 3.366-.871 4.666c-.101.531.451.946.933.702z" clip-rule="evenodd"/>
    <path fill="#50BFA5" fill-rule="evenodd" d="M232.359 48.69l-4.367.444-1.489-6.965-6.462-.14L218.077 37l-2.54.997 2.628 6.726 6.124.133 1.548 7.245 6.57-.669-.048-2.743z" clip-rule="evenodd"/>
    <path fill="#F7CC7F" fill-rule="evenodd" d="M172.314 137.961c-.061-.173-1.523-2.681-3.412-5.406-8.784-12.688-21.809-24.918-37.083-24.459l-.011-.093c6.906-.76 13.672 1.084 19.612 4.371 9.799 5.297 19.347 15.391 24.571 23.15l-3.677 2.437z" clip-rule="evenodd"/>
    <path fill="#F7A491" fill-rule="evenodd" d="M272.764 122.128s.448-.908.422-3.005c-.033-2.594-.552-6.51-.656-6.856-.186-.626 8.18-3.256 8.18-3.256s13.425-.689 15.423-2.191c1.997-1.503 3.679-2.122 2.747-.564-1.687 2.818-5.621 6.95-6.494 7.514-.875.563-11.302 3.193-11.489 3.193-.187 0-.125 6.574-.125 6.574l-8.008-1.409z" clip-rule="evenodd"/>
    <path fill="#3C8F7C" fill-rule="evenodd" d="M281.473 119.326s-8.692-1.481-8.85-.61c-3.512 19.284-4.108 25.658-4.495 25.858-1.323.682-20.243-15.967-23.37-17.057-1.495-.521-3.122-.434-4.681-.388-3.72.11-2.465.021-4.426.117l.002.005-.167.011.02 3.508c4.191 3.78 13.784 61.041 14.591 61.001.904-.042 19.863 4.743 19.529 3.142-.055-.26-12.855-10.764-16.483-25.921-1.221-5.089-1.821-10.568-2.483-15.363 4.213 2.118 20.668 10.237 23.276 9.164 8.111-3.337 7.537-43.467 7.537-43.467z" clip-rule="evenodd"/>
    <path fill="#F7A491" fill-rule="evenodd" d="M314.127 220.994s17.639 13.856 18.229 16.312c.846 3.539 16.999-1.114 13.105-1.832-.897-.166-3.765-.896-4-1.024-1.262-.674-16.958-19.64-16.958-19.64l-10.376 6.184z" clip-rule="evenodd"/>
    <path fill="#184655" fill-rule="evenodd" d="M353.036 235.474l-11.263-.922s-3.219 2.672-9.406 2.798c0 0-.99 2.833-.519 6.147.081.571.176 2.297.749 2.26 2.083-.143 7.626-1.526 13.944-2.794 0 0 8.489-1.801 13.393-4.742s-6.898-2.747-6.898-2.747z" clip-rule="evenodd"/>
    <path fill="#B75742" fill-rule="evenodd" d="M235.086 186.239s12.918 2.176 27.204-1.175c16.531-3.878 34.813-7.464 40.167-4.341 4.312 2.513 31.233 43.303 31.233 43.303l-10.396 7.607-29.643-33.282s-37.819 13.991-46.313 12.439c-19.344-3.53-19.619-19.021-12.252-24.551z" clip-rule="evenodd"/>
    <path fill="#B75742" fill-rule="evenodd" d="M249.209 178.009l12.925 15.4-23.979 7.325-3.069-14.495 14.123-8.23z" clip-rule="evenodd"/>
    <path fill="#F7A491" fill-rule="evenodd" d="M275.475 248.361s-.785 21.394-1.273 25.016c-.484 3.605 9.055 14.47 7.836 10.691-.281-.868-1.002-3.746-1.004-4.015-.007-1.433 3.538-25.838 3.538-25.838l-9.097-5.854z" clip-rule="evenodd"/>
    <path fill="#184655" fill-rule="evenodd" d="M285.636 290.751l-4.543-10.374s-3.875-1.569-6.924-6.969c0 0-2.956.474-5.641 2.463-.461.342-3.617 2.657-3.397 3.19.809 1.965 5.104 6.172 9.803 10.769 0 0 6.658 5.384 11.57 8.314 4.91 2.928-.868-7.393-.868-7.393z" clip-rule="evenodd"/>
    <path fill="#F47458" fill-rule="evenodd" d="M296.413 206.182c-4.517-6.039-40.975-11.776-40.975-11.776l-10.163-19.592-22.479 13.899s2.247 17.937 3.934 22.728c2.247 6.387 17.353 6.711 26.58 6.616 8.49-.086 23.996 1.65 23.996 1.65l-5.244 46.394s10.308 2.353 13.207 1.971c.325-.042 16.764-54.376 11.144-61.89z" clip-rule="evenodd"/>
    <path fill="#fff" fill-rule="evenodd" d="M235.611 127.293l-12.683.697s-.29.103-.378.119c-1.034.192-.095 37.251.826 51.092.922 13.84 2.791 19.657 2.791 19.657s17.202-3.063 22.479-5.118c2.19-.853 7.494-7.498 7.494-7.498s-5.418-7.303-8.147-19.164c-2.104-9.148-4.699-25.365-6.183-28.75-3.413-7.773-6.199-11.035-6.199-11.035z" clip-rule="evenodd"/>
    <path fill="#F7A491" fill-rule="evenodd" d="M223.291 116.776l-.361 11.228s8.211 14.184 12.424 12.207c3.538-1.659.398-12.448.398-12.448s-.611-2.474-1.462-5.316c-.594-1.986-1.087-4.137-1.049-5.716.088-3.837-9.95.045-9.95.045z" clip-rule="evenodd"/>
    <path fill="#184655" fill-rule="evenodd" d="M233.098 91.167s4.184 6.324 4.496 11.646c.313 5.322-.811 8.953-.811 8.953l-13.426-16.09 9.741-4.509z" clip-rule="evenodd"/>
    <path fill="#F48C7F" fill-rule="evenodd" d="M238.984 101.724c.189 1.863-.534 3.463-1.614 3.574-1.079.11-2.109-1.311-2.298-3.174-.189-1.864.532-3.464 1.614-3.574 1.08-.11 2.109 1.31 2.298 3.174z" clip-rule="evenodd"/>
    <path fill="#F7A491" fill-rule="evenodd" d="M219.014 98.253c-.308-.066-.277 15.425 4.2 19.071 4.477 3.645 12.272 3.965 14.548.293 2.517-4.061.123-20.384-6.538-23.851-6.66-3.467-12.21 4.487-12.21 4.487z" clip-rule="evenodd"/>
    <path fill="#184655" fill-rule="evenodd" d="M217.879 88.647c-3.419 3.006-5.075 5.201-7.388 10.544-2.843 6.57 2.799 13.377 7.531 16.082 4.732 2.705 5.132 6.026 5.132 6.026l.187-2.067c.205-1.604-.281-2.52-.732-3.49-.405-.863-1.697-3.822-2.201-4.602-1.333-2.059-1.594-2.505-.937-4.461.506-1.506-.081-4.827.702-7.31l6.37-1.377s3.984-.96 5.996-3.289c5.779-6.685-5.644-14.14-14.66-6.056z" clip-rule="evenodd"/>
    <path fill="#F7A491" fill-rule="evenodd" d="M220.986 108.374c.783 1.7.62 3.449-.365 3.906-.985.458-2.419-.55-3.204-2.249-.785-1.7-.622-3.45.363-3.907.985-.457 2.421.55 3.206 2.25z" clip-rule="evenodd"/>
    <path fill="#F7CC7F" fill-rule="evenodd" d="M135.208 113.925l-1.034-7.136 5.278-4.899c.6-.559.303-1.565-.505-1.704l-7.088-1.22-3.016-6.546c-.343-.746-1.39-.773-1.771-.046l-3.348 6.382-7.141.854c-.813.097-1.162 1.087-.591 1.675l5.02 5.165-1.398 7.073c-.159.806.672 1.445 1.407 1.081l6.449-3.19 6.278 3.518c.714.401 1.577-.194 1.46-1.007z" clip-rule="evenodd"/>
    <path fill="#F8A492" fill-rule="evenodd" d="M177.587 65.641c.724 2.982 2.029 7.695 2.029 7.695-.103 1.296-.484 6.687-.939 13.296l9.687-3.888s-.116-10.767.317-11.426c.365-.558.979.138 3.948-4.123.858-1.23 1.018-3.427 1.018-3.427s.177-2.704-.429-2.956c-.606-.252-1.3.152-1.52.62-.219.467-.163 1.555-.382 2.022-.219.468-1.62 1.031-2.211 1.002-.589-.03.074-8 .074-8s.33-2.26.497-3c.142-.63.715-2.48.715-2.48s.672-2.683-.159-2.887c-.49-.121-1.738 2.058-2.593 4.371-.921 2.492-1.444 5.133-1.707 5.098-.618-.084-.291-4.454-.291-4.454s.617-2.002.601-2.947c.582-1.157.968-3.304-.056-3.482-.19-.033-1.54 2.695-1.54 2.695s-.531 1.92-.841 2.818c-.545 1.583-.628 4.084-.913 5.186-.237.917-.451.54-.548.578-.076.03.056-1.235.207-2.974.077-.875-.024-1.885.221-2.883.226-.923.355-2.245.414-3.044.166-2.26-1.253-2.029-1.744.038-.187.787-.384 1.646-.579 2.518-.763 3.388-.741 6.653-1.106 6.68-.473.035-.161-5.909-.161-5.909s-.726-3.29-1.447-.236c-.837 3.543-.75 6.432-.738 6.56.076.865-.547 3.957.176 6.94z" clip-rule="evenodd"/>
    <path fill="#3C8F7C" fill-rule="evenodd" d="M222.913 128.009s-12.556-.593-15.799-2.064c-1.969-.892-18.124-13.946-18.124-13.946l.181-34.95-11.363-.867s-5.891 38.631-3.85 42.86c2.107 4.367 25.756 22.345 30.486 30.146 2.724 4.494 8.406 65.615 9.266 66.166 6.12 3.193 25.015 6.383 24.571 4.445-12.301-53.531-15.368-91.79-15.368-91.79z" clip-rule="evenodd"/>
    <path fill="#FAE0B2" fill-rule="evenodd" d="M316.842 74.931c0 20.926-16.918 37.89-37.787 37.89-20.87 0-37.788-16.964-37.788-37.89 0-20.926 16.918-37.89 37.788-37.89 20.869 0 37.787 16.964 37.787 37.89z" clip-rule="evenodd"/>
    <path fill="#F7CC7F" fill-rule="evenodd" d="M310.765 74.931c0 17.56-14.196 31.795-31.71 31.795-17.512 0-31.708-14.235-31.708-31.795 0-17.56 14.196-31.795 31.708-31.795 17.514 0 31.71 14.235 31.71 31.795z" clip-rule="evenodd"/>
    <path fill="#fff" fill-rule="evenodd" d="M269.239 95.346l1.803-4.99c-2.21-.918-4.264-2.145-5.867-3.402-1.337-1.049-1.631-2.959-.675-4.366l.114-.17c1.056-1.55 3.209-1.884 4.666-.707 1.487 1.198 3.279 2.302 5.328 3.047 2.986 1.086 5.447.673 6.206-1.428.723-1.996-.497-3.866-3.899-6.589-4.921-3.928-7.797-7.945-5.955-13.04 1.672-4.623 6.23-7.066 12.235-6.132l1.803-4.99 5.135 1.867-1.672 4.622c1.874.778 3.347 1.603 4.53 2.43 1.445 1.01 1.801 3.004.807 4.463-1.027 1.509-3.098 1.867-4.565.784-1.099-.811-2.518-1.655-4.367-2.327-3.404-1.238-5.035-.167-5.567 1.304-.627 1.733.807 3.503 4.652 6.802 5.436 4.473 6.907 8.276 5.196 13.003-1.691 4.675-6.434 7.467-12.837 6.328l-1.937 5.358-5.134-1.867z" clip-rule="evenodd"/>
    <path fill="#F7A491" fill-rule="evenodd" d="M278.087 113.018s3.496-1.503 4.433-1.816c.937-.312 3.934-.876 3.934-.876s4.653-4.79 5.838-4.915c1.187-.125-2.716 5.228-2.716 5.228l-1.623 1.565s2.622-2.254 3.121-2.567c.501-.313 4.435-6.01 5.433-5.635.998.376-1.686 4.383-2.997 6.512-1.31 2.129-7.307 3.443-7.307 3.443l-8.116-.939z" clip-rule="evenodd"/>
    <path fill="#F7CC7F" fill-rule="evenodd" d="M352.86 143.92c-.006.939-21.241 1.198-25.643 20.079l-2.83-.933c6.306-19.193 27.332-18.42 28.361-19.126.013-.011.02-.021.018-.02h.094zM409.229 249.951l.73-2.518c3.861-.732 7.183-3.367 8.279-7.144.351-1.208.591-2.229.771-3.598l-5.174-1.506.922-3.173 4.67 1.36c.187-1.583.453-3.635 1.023-5.598 1.724-5.942 6.913-8.634 12.487-7.009 1.592.463 2.819 1.065 3.732 1.68.826.56 1.044 1.689.499 2.527-.548.844-1.663 1.085-2.518.558-.71-.439-1.614-.86-2.749-1.191-3.916-1.14-6.31 1.111-7.348 4.685-.627 2.166-.794 3.865-.959 5.563l7.232 2.108-.921 3.173-6.828-1.991c-.404 1.958-.859 3.9-1.836 5.58-1.181 2.004-2.911 3.466-5.042 4.43l-.028.099 13.197 3.848c.977.284 1.537 1.307 1.254 2.286l-.04.132c-.284.979-1.304 1.541-2.28 1.257l-19.073-5.558z" clip-rule="evenodd"/>
</svg>
