<svg xmlns="http://www.w3.org/2000/svg" width="95" height="95" fill="none" viewBox="0 0 95 95">
    <g filter="url(#filter0_d)">
        <circle cx="47.5" cy="43.5" r="26.5" fill="#fff"/>
    </g>
    <path fill="#1E222A" d="M58.487 33.503c-.154-.154-.338-.277-.54-.36-.2-.084-.417-.127-.635-.127-.219 0-.435.043-.636.127-.202.083-.385.206-.54.36l-8.15 8.134-8.15-8.15c-.154-.155-.337-.277-.538-.36-.202-.084-.418-.127-.636-.127-.218 0-.435.043-.636.127-.202.083-.385.205-.54.36-.154.154-.276.337-.36.539-.083.201-.126.417-.126.636 0 .218.043.434.127.636.083.201.205.384.36.539l8.15 8.15-8.15 8.15c-.155.154-.277.337-.36.539-.084.201-.127.417-.127.636 0 .218.043.434.127.636.083.201.205.384.36.539.154.154.337.276.539.36.201.083.417.126.636.126.218 0 .434-.043.636-.126.201-.084.384-.206.539-.36l8.15-8.15 8.15 8.15c.154.154.337.276.539.36.201.083.417.126.636.126.218 0 .434-.043.636-.126.201-.084.384-.206.539-.36.154-.155.276-.338.36-.54.083-.201.126-.417.126-.635 0-.218-.043-.435-.126-.636-.084-.202-.206-.385-.36-.54l-8.15-8.15 8.15-8.15c.633-.633.633-1.7 0-2.333z"/>
    <defs>
        <filter id="filter0_d" width="95" height="95" x="0" y="0" color-interpolation-filters="sRGB" filterUnits="userSpaceOnUse">
            <feFlood flood-opacity="0" result="BackgroundImageFix"/>
            <feColorMatrix in="SourceAlpha" values="0 0 0 0 0 0 0 0 0 0 0 0 0 0 0 0 0 0 127 0"/>
            <feOffset dy="4"/>
            <feGaussianBlur stdDeviation="10.5"/>
            <feColorMatrix values="0 0 0 0 0 0 0 0 0 0 0 0 0 0 0 0 0 0 0.3 0"/>
            <feBlend in2="BackgroundImageFix" result="effect1_dropShadow"/>
            <feBlend in="SourceGraphic" in2="effect1_dropShadow" result="shape"/>
        </filter>
    </defs>
</svg>
