<svg xmlns="http://www.w3.org/2000/svg" width="20" height="20" fill="none" viewBox="0 0 20 20">
    <path fill="#FFB912" d="M10 0C4.477 0 0 4.477 0 10s4.477 10 10 10h10V10c0-5.523-4.477-10-10-10zm0 18.174c-4.515 0-8.174-3.66-8.174-8.174 0-4.515 3.66-8.174 8.174-8.174 4.515 0 8.175 3.66 8.175 8.174 0 4.514-3.66 8.174-8.175 8.174z"/>
    <path fill="#FFB912" d="M11.976 15.022l4.224-4.224c.047-.047.089-.098.125-.153.017-.025.028-.05.041-.076.018-.033.038-.064.052-.098.013-.031.02-.065.03-.098.01-.03.021-.059.027-.09.012-.06.017-.12.018-.181l.002-.016-.002-.02c-.001-.059-.006-.118-.018-.177-.006-.032-.018-.063-.028-.094-.01-.031-.016-.064-.029-.094-.015-.036-.035-.07-.054-.103-.013-.024-.023-.048-.038-.07-.037-.056-.08-.108-.127-.155L11.976 5.15c-.393-.393-1.03-.393-1.424 0-.393.393-.393 1.031 0 1.424l2.505 2.505H4.53c-.556 0-1.007.45-1.007 1.007 0 .556.45 1.007 1.007 1.007h8.528l-2.505 2.505c-.393.393-.393 1.03 0 1.424.393.393 1.031.393 1.424 0z"/>
</svg>
