<svg xmlns="http://www.w3.org/2000/svg" width="48" height="46" fill="none" viewBox="0 0 48 46">
    <path fill="#fff" d="M12.133 20.947c-5.291 0-9.593 4.537-9.597 10.113-.002 3.094 1.317 5.981 3.62 7.92.257.215.408.54.416.886.006.346-.133.676-.38.903-.317.291-.492.687-.493 1.114 0 .397.147.77.412 1.051.265.282.619.436.996.436L41 43.4v1.164V43.4c.777 0 1.409-.667 1.41-1.486 0-.427-.174-.823-.492-1.113-.247-.228-.385-.56-.378-.905.007-.346.16-.67.416-.886 2.307-1.934 3.63-4.818 3.632-7.913.003-2.704-.993-5.246-2.803-7.159-1.81-1.913-4.217-2.968-6.779-2.97-1.203 0-2.382.238-3.515.708-.387.162-.828.079-1.14-.215-2.012-1.9-4.597-2.947-7.279-2.95-2.686 0-5.27 1.044-7.283 2.938-.311.292-.752.375-1.14.213-1.134-.473-2.317-.713-3.515-.715z"/>
    <path fill="#002366" fill-rule="evenodd" d="M40.997 45.728H41c1.993 0 3.614-1.71 3.616-3.813 0-.651-.16-1.285-.457-1.846 2.32-2.34 3.634-5.551 3.636-8.97.006-6.866-5.282-12.455-11.796-12.46-1.253 0-2.489.211-3.686.63-2.337-1.993-5.238-3.085-8.25-3.087-2.998 0-5.897 1.085-8.234 3.072-1.199-.422-2.44-.635-3.704-.636-6.499 0-11.79 5.58-11.796 12.44-.003 3.42 1.305 6.632 3.623 8.978-.298.56-.46 1.193-.46 1.844 0 1.02.374 1.978 1.056 2.7.683.72 1.59 1.118 2.556 1.119l33.893.029zM2.536 31.06c.004-5.576 4.306-10.113 9.598-10.113 1.198.002 2.38.242 3.515.715.388.162.829.079 1.14-.213 2.013-1.894 4.597-2.937 7.283-2.937 2.682.001 5.267 1.049 7.28 2.949.31.294.752.377 1.139.215 1.133-.47 2.312-.708 3.515-.708 2.562.002 4.97 1.057 6.78 2.97 1.809 1.913 2.805 4.455 2.802 7.159-.002 3.095-1.325 5.979-3.632 7.913-.257.216-.409.54-.416.886-.007.346.131.677.378.905.318.29.492.686.491 1.113 0 .82-.632 1.486-1.408 1.486v1.164L41 43.4l-33.893-.03c-.377 0-.73-.154-.996-.436-.265-.281-.412-.654-.412-1.051 0-.427.176-.823.493-1.114.247-.227.386-.557.38-.903-.008-.346-.16-.67-.416-.886-2.303-1.939-3.622-4.826-3.62-7.92z" clip-rule="evenodd"/>
    <path fill="#002366" d="M20.13 27.292c-.58 0-1.067-.48-1.1-1.1-.16-2.982-3.392-4.534-3.425-4.549-.557-.261-.807-.95-.56-1.537.248-.588.9-.852 1.457-.59.184.086 4.497 2.16 4.732 6.546.034.642-.431 1.192-1.04 1.228l-.063.002zM35.655 27.61c-.51 0-.968-.375-1.078-.921-.807-3.997-4.84-6.491-4.88-6.516-.526-.32-.709-1.032-.405-1.589.304-.557.975-.75 1.504-.431.2.12 4.924 3.022 5.94 8.05.127.63-.253 1.248-.85 1.382-.078.017-.155.025-.23.025zM18.542 14.193c-.165 0-.333-.039-.49-.122-.1-.053-2.45-1.323-2.45-3.953 0-2.631 2.35-3.9 2.45-3.953.004-.003 1.229-.69 1.229-1.87 0-1.181-1.225-1.868-1.237-1.874-.538-.295-.753-.994-.478-1.565.276-.569.932-.8 1.473-.514.1.053 2.448 1.322 2.448 3.953 0 2.63-2.349 3.9-2.448 3.953-.005.002-1.23.689-1.23 1.87 0 1.18 1.225 1.867 1.237 1.873.537.296.753.995.478 1.565-.196.403-.581.637-.982.637zM29.576 14.193c-.165 0-.332-.039-.49-.122-.1-.053-2.45-1.323-2.45-3.953 0-2.631 2.35-3.9 2.45-3.953.005-.003 1.229-.69 1.229-1.87 0-1.181-1.224-1.868-1.236-1.874-.538-.295-.753-.994-.478-1.565.276-.569.931-.8 1.472-.514.1.053 2.449 1.322 2.449 3.953 0 2.63-2.35 3.9-2.449 3.953-.005.002-1.23.689-1.23 1.87 0 1.18 1.225 1.867 1.238 1.873.537.296.753.995.477 1.565-.195.403-.58.637-.982.637zM24.059 14.193c-.165 0-.333-.039-.49-.122-.1-.053-2.45-1.323-2.45-3.953 0-2.631 2.35-3.9 2.45-3.953.005-.003 1.229-.69 1.229-1.87 0-1.181-1.224-1.868-1.237-1.874-.538-.295-.753-.994-.477-1.565.276-.569.93-.8 1.472-.514.1.053 2.449 1.322 2.449 3.953 0 2.63-2.35 3.9-2.449 3.953-.005.002-1.23.689-1.23 1.87 0 1.18 1.225 1.867 1.237 1.873.538.296.753.995.478 1.565-.195.403-.58.637-.982.637z"/>
</svg>
