<svg xmlns="http://www.w3.org/2000/svg" width="28" height="18" fill="none" viewBox="0 0 28 18">
    <path fill="#BD4126" d="M10.222 10.9h4.187c-.735 2.078-2.725 3.568-5.055 3.55-2.828-.02-5.166-2.282-5.275-5.107-.118-3.029 2.312-5.53 5.314-5.53 1.373 0 2.626.523 3.571 1.38.224.203.564.204.784-.003l1.538-1.447c.24-.226.242-.609.002-.836C13.79 1.488 11.78.603 9.564.56 4.838.468.854 4.343.821 9.07c-.034 4.764 3.817 8.635 8.572 8.635 4.573 0 8.31-3.58 8.56-8.091.006-.057.01-1.968.01-1.968h-7.74c-.318 0-.575.257-.575.575v2.105c0 .317.257.574.574.574zM25.056 7.837V5.781c0-.279-.225-.504-.503-.504h-1.731c-.278 0-.504.225-.504.504v2.056h-2.057c-.278 0-.503.226-.503.504v1.731c0 .278.225.504.503.504h2.057v2.056c0 .278.226.504.504.504h1.73c.279 0 .504-.226.504-.504v-2.056h2.057c.278 0 .503-.226.503-.504V8.341c0-.278-.225-.504-.503-.504h-2.057z"/>
</svg>
