<svg xmlns="http://www.w3.org/2000/svg" width="11" height="14" fill="none" viewBox="0 0 11 14">
    <path fill="#B5C0C6" d="M5.5 8c-.494 0-.978-.147-1.389-.421-.411-.275-.731-.665-.92-1.122C3 6 2.95 5.497 3.047 5.012c.096-.485.335-.93.684-1.28.35-.35.795-.588 1.28-.684.485-.096.988-.047 1.445.142.457.19.847.51 1.122.921.274.411.421.895.421 1.389 0 .663-.264 1.298-.733 1.767-.469.469-1.104.732-1.767.733zm0-4c-.297 0-.587.088-.833.253-.247.165-.44.399-.553.673-.113.274-.143.576-.085.867.058.29.2.558.41.768.21.21.477.352.768.41.291.058.593.028.867-.085.274-.114.508-.306.673-.553C6.912 6.087 7 5.797 7 5.5c0-.398-.159-.779-.44-1.06S5.898 4 5.5 4z"/>
    <path fill="#B5C0C6" d="M5.5 14L1.282 9.025c-.059-.074-.117-.15-.174-.225C.388 7.85-.002 6.692 0 5.5c0-1.459.58-2.858 1.61-3.89C2.643.58 4.042 0 5.5 0s2.858.58 3.89 1.61C10.42 2.643 11 4.042 11 5.5c.002 1.191-.387 2.35-1.107 3.299l-.001.001s-.15.197-.172.223L5.5 14zM1.906 8.197c.001 0 .117.155.144.188l3.45 4.069 3.455-4.075c.022-.027.139-.182.14-.183C9.683 7.421 10 6.474 10 5.5c0-1.193-.474-2.338-1.318-3.182C7.838 1.474 6.693 1 5.5 1c-1.193 0-2.338.474-3.182 1.318C1.474 3.162 1 4.307 1 5.5c-.001.974.317 1.922.907 2.697h-.001z"/>
</svg>
