<svg xmlns="http://www.w3.org/2000/svg" width="542" height="355" fill="none" viewBox="0 0 542 355">
    <rect width="542" height="355" fill="#81D2D7" rx="10"/>
    <mask id="ju8r4rt5na" width="542" height="355" x="0" y="0" maskUnits="userSpaceOnUse">
        <rect width="542" height="355" fill="#fff" rx="10"/>
    </mask>
    <g mask="url(#ju8r4rt5na)">
        <path fill="url(#paint0_linear)" d="M-122.003 181.507c8.611.719 17.165 2.477 23.964-2.855 6.799-5.332 11.473-12.875 17.526-19.041 6.053-6.166 14.63-11.15 23.026-9.106 5.408 1.316 10.127 5.421 15.693 5.341 15.125-.218 16.908-27.986 31.994-29.1 8.544-.629 16.254 8.463 24.467 6.027 4.447-1.319 7.2-5.592 10.339-9.011 7.703-8.246 18.912-12.267 30.1-10.795 11.16 1.677 20.824 8.64 25.948 18.695 2.765 5.551 4.012 11.815 7.249 17.105 3.237 5.29 9.563 9.572 15.445 7.607 4.648-1.554 7.681-6.543 12.48-7.541 5.93-1.233 11.082 4.12 14.276 9.267 3.194 5.147 6.477 11.185 12.358 12.635 4.194 1.033 8.51-.634 12.74-1.505 18.6-3.833 36.536 7.729 52.02 18.726-5.688-.4-11.361-1.185-17.062-1.185H-136c10.091-5.857-2.309-6.625 13.997-5.264z" opacity=".82"/>
        <path fill="url(#paint1_linear)" d="M35.273 387.152c7.883.658 15.715 2.268 21.939-2.614s10.5-11.787 16.046-17.432c5.546-5.645 13.394-10.208 21.08-8.337 4.951 1.206 9.271 4.964 14.366 4.89 13.848-.2 15.48-25.621 29.292-26.638 7.821-.576 14.88 7.748 22.4 5.518 4.072-1.208 6.6-5.12 9.466-8.25 6.999-7.632 17.307-11.328 27.561-9.883 10.254 1.445 19.139 7.846 23.756 17.115 2.531 5.082 3.673 10.817 6.636 15.66s8.755 8.764 14.139 6.964c4.256-1.422 7.033-5.99 11.426-6.9 5.43-1.129 10.146 3.772 13.07 8.484 2.924 4.712 5.93 10.24 11.314 11.567 3.84.946 7.79-.58 11.664-1.378 17.029-3.508 33.448 7.076 47.624 17.144-5.207-.362-10.4-1.085-15.62-1.085H22.464c9.233-5.368-2.122-6.071 12.809-4.825z" opacity=".82"/>
        <path fill="url(#paint2_linear)" d="M557.21 59.585c-7.3.609-14.542 2.1-20.3-2.418-5.758-4.518-9.719-10.908-14.848-16.132-5.129-5.224-12.394-9.446-19.507-7.714-4.581 1.115-8.579 4.593-13.294 4.525-12.814-.185-14.325-23.71-27.106-24.651-7.238-.532-13.77 7.17-20.727 5.107-3.768-1.118-6.1-4.738-8.76-7.635-6.478-7.06-16.016-10.48-25.504-9.142-9.488 1.337-17.709 7.26-21.983 15.835-2.342 4.7-3.4 10.01-6.141 14.491s-8.1 8.11-13.084 6.445c-3.939-1.316-6.508-5.544-10.573-6.389-5.025-1.044-9.389 3.491-12.1 7.851-2.711 4.36-5.487 9.476-10.469 10.7-3.554.876-7.21-.537-10.794-1.275-15.758-3.247-30.952 6.548-44.07 15.864 4.818-.334 9.625-1 14.455-1h276.659c-8.545-4.964 1.963-5.615-11.854-4.462z" opacity=".82"/>
        <path fill="url(#paint3_linear)" d="M210.342 104.26c1.29 5.665 4.62 39.496 4.252 44.36-.845 11.177-.711 14.617-2.965 27.857-1.636 9.613-6.655 44.282-6.655 44.282s-7.902 2.543-12.173 0c0 0 .937-29.853 1.12-45.959.193-17.035-.194-21.325-3.3-31.412s-10.696-22.238-13.793-29.234c-3.098-6.996 7.888-27.996 7.888-27.996s21.899 9.23 24.074 11.378c2.174 2.148.826 3.533 1.552 6.724z"/>
        <path fill="url(#paint4_linear)" d="M195.646 89.27c.202 3.354-6.744 18.577-6.786 22.156-.13 10.85-5.203 33.419-7.794 44.541-2.59 11.122-20.223 64.444-20.223 64.444s-13.718.776-13.718 0c0-.777 8.147-31.988 9.7-45.437 1.552-13.45 2.527-71.49 8.998-86.49 6.471-15.001 29.823.785 29.823.785z"/>
        <path fill="#FFD7B1" d="M227.13 23.05s-5.313 6.289-8.349 8.055c-3.036 1.767-15.686 0-15.686 0s4.301 12.64 10.12 16.18c5.818 3.54 16.699 2.528 16.699 2.528s-1.771-4.769-1.518-8.849c.253-4.08 7.062-7.078 7.062-7.078L227.13 23.05z"/>
        <path fill="url(#paint5_linear)" d="M227.13 23.05s-5.313 6.289-8.349 8.055c-3.036 1.767-15.686 0-15.686 0s4.301 12.64 10.12 16.18c5.818 3.54 16.699 2.528 16.699 2.528s-1.771-4.769-1.518-8.849c.253-4.08 7.062-7.078 7.062-7.078L227.13 23.05z"/>
        <path fill="url(#paint6_linear)" d="M230.013 41.756l-.518-1.638s-5.953 4.398-7.247 4.398c0 0-5.824-11.681-4.531-14.01-1.989.162-3.99.063-5.952-.293-4.294-.697-6.21 0-6.21 0s-6.082 25.424-10.482 33.442c-4.4 8.018-9.315 15-9.315 15l-1.035 7.5s3.105 5.82 11.906 8.601l8.8 2.78s-2.33-12.41 5.694-22.76c8.023-10.35 21.741-26.381 21.741-26.381l-2.851-6.639z"/>
        <path fill="#E50000" d="M219.257 48.355c1.623-1.398-1.106-3.556.167-5.302.097-.131.21-.25.336-.354l5.33 3.581-1.048 2.587c-1.065.286-2.217.533-2.388.642-.787.503-11.489 23.077-13.898 25.984-2.505 3.019-6.624 5.545-7.528 4.917-1.095-.761.064-9.177.75-10.32 2.941-4.92 16.954-20.594 18.279-21.735z"/>
        <path fill="url(#paint7_linear)" d="M222.854 45.126l-5.914 1.09V30.77l2.735-.683 3.179 15.04z"/>
        <path fill="url(#paint8_linear)" d="M228.643 40.596l-5.791 4.529.542 4.773 6.318-6.53-1.069-2.772z"/>
        <path fill="#FFD7B1" d="M302.879 101.437c-1.203-.616-2.253-1.492-3.075-2.565-.729-1.174-1.656-2.488-2.975-2.679-1.318-.19-2.937.077-2.862.773.075.696 2.779 2.342 3.041 3.373.263 1.031.981 2.715.566 4.047-.278 1.431-.394 2.89-.347 4.347 1.336-.141 2.685.096 3.894.683 1.89.971 1.758-7.979 1.758-7.979z"/>
        <path fill="#FFD7B1" d="M300.202 101.407c-1.916-1.182-6.294-2.838-7.677-2.392-2.11.878-4.08 2.061-5.846 3.511-.691.808-1.812.185-1.479 1.229.332 1.044.266 3.36.839 4.562.486 1.198 1.749 1.889 3.021 1.654 1.421-.197 3.877.13 5.5-.388 1.623-.517 3.405-.838 4.675-.224.784.375 1.617.635 2.475.771 0 0 .53-6.189 1.071-6.751.54-.562-2.579-1.972-2.579-1.972z"/>
        <path fill="#FFD7B1" d="M299.249 100.89c-.867-1.438-1.577-3.85-3.257-4.086-2.987-.724-5.924-1.639-8.794-2.739-1.565-.726-3.006-1.695-4.269-2.87-1.377 1.867-2.76 3.73-4.15 5.587.839.927 1.778 1.917 2.636 2.702 2.275 2.08 2.475 3.781 3.785 4.271 1.309.489 1.779-.551 3.44-1.652 1.661-1.102 3.692-2.93 4.853-2.905 1.161.024 2.194 2.336 3.365 2.801 1.171.464 3.258.33 2.391-1.109z"/>
        <path fill="url(#paint9_linear)" d="M281.814 91.058c2.173.663 6.119 1.8 6.119 1.8s-1.618 4.424-2.152 6.695c-.264 1.203-.63 2.382-1.096 3.522 0 0-5.002-1.733-7.468-3.551-2.467-1.818-6.088-7.104-6.088-7.104l10.685-1.362z"/>
        <path fill="url(#paint10_linear)" d="M242.247 54.978c1.876 2.542 10.595 14.283 17.845 20.945 12.803 11.766 25.106 15.513 25.106 15.513s-3.441 7.019-5.015 10.465c0 0-17.371-7.487-26.853-13.046-8.778-5.144-30.155-25.274-30.155-25.274l19.072-8.603z"/>
        <path fill="url(#paint11_linear)" d="M214.743 29.997s-1.554 23.183-1.165 28.226c.389 5.043-6.21 12.803-9.315 19.79-3.105 6.986-12.035 24.468-15.529 24.801-3.494.334-23.576 2.079-30.176-3.87 0 0 9.986-16.927 16.587-29.079 6.68-12.299 10.872-20.131 13.977-28.106 3.106-7.974 6.546-17.113 6.546-17.113s13.129 3.351 19.075 5.351z"/>
        <path fill="url(#paint12_linear)" d="M230.013 41.756c-2.581 4.106-5.524 7.972-8.796 11.553-2.511 2.872-5.218 5.567-8.101 8.066 0 0-7.946 10.039-10.534 13.92-2.588 3.88-11.329 22.841-6.928 29.242 4.824 2.437 10.128 3.776 15.532 3.918.074-4.957.482-9.903 1.223-14.805 1.451-8.515 3.571-11.372 8.773-16.545 5.203-5.173 22.019-22.125 22.019-22.125s-8.271-10.81-13.188-13.224z"/>
        <path fill="url(#paint13_linear)" d="M170.301 228.403c-1.257-1.32-2.668-2.485-4.202-3.47-3.495-2.312-5.971-5.874-6.92-9.954h-10.035c-.988 3.364-1.767 6.785-2.335 10.243 7.898.489 15.749 1.552 23.492 3.181z"/>
        <path fill="url(#paint14_linear)" d="M216.937 232.882c.183-1.588-2.962-2.384-7.278-6.588-5.083-4.947-5.784-7.375-8.803-8.564l-6.527 1.73c-1.387 2.138-2.276 4.56-2.602 7.087 8.473 1.834 16.897 3.884 25.21 6.335z"/>
        <path fill="#FFD7B1" d="M153.465 88.611c-1.445 1.946-2.494 4.158-3.085 6.508-.258 1.569-.842 3.067-1.714 4.397-.515.571-2.914.914-2.914.914s-.514 1.883-1.714 2.054c-1.2.171-1.028-.168-2.4 0-1.371.168-1.543-.685-2.913-1.198-1.37-.513-1.2-.457-2.058-1.77-.857-1.314-.342-1.95 1.2-3.942 1.659-2.18 3.494-4.222 5.485-6.105 2.4-2.283 4.833-7.178 4.833-7.178l5.28 6.32z"/>
        <path fill="url(#paint15_linear)" d="M155.148 85.811l-3.086 6.509c-3.43.52-6.831-1.106-8.58-4.1l6.386-8.73 5.28 6.321z"/>
        <path fill="url(#paint16_linear)" d="M195.668 24.643c-4.792 4.852-9.828 9.456-15.09 13.794-9.315 7.76-17.471 16.682-20.189 19.398-2.717 2.716-15.529 27.287-15.529 27.287s3.882 1.81 9.706 4.914c0 0 6.988-8.022 15.529-22.063 3.872-6.366 20.211-13.888 29.324-18.03 9.112-4.141 8.673-22.161-3.751-25.3z"/>
        <path fill="#FFD7B1" d="M246.965 27.132s-3.273 4.766-3.978 5.534c-.705.768-1.902 2.566-2.892 3.662-.989 1.096-5.997 4.13-7.752 4.521-1.754.392-4.157-.88-5.255-2.843-1.097-1.963-2.196-5.875-2.89-8.153-.693-2.279.982-7.918.982-7.918s.672-4.423 7.679-3.922c7.007.502 8.5-.251 10.684 1.323 5.516 3.969 3.422 7.796 3.422 7.796z"/>
        <path fill="#502C16" d="M222.57 21.361c1.117 4.775.939 6.213.939 6.213s6.507-1.383 3.767-2.878c-2.739-1.494.811-6.54 2.259-4.416 1.434 2.127.481 5.91.481 5.91l1.648-1.509.832-2.782c.839-2.79 1.777-3.68 3.546-3.005 3.25 1.145 6.363 2.65 9.278 4.488.346.197.651.458.9.768 1.061 1.318-.104 2.648.746 2.977 1.115.456 2.371.425 3.463-.083 2.065-1.016 1.907-5.61-.796-9.779-8.953-13.806-16.188-7.061-16.188-7.061s-.587-1.666-3.583-1.82c-3.718-.188-8.409 8.215-7.292 12.977z"/>
        <path fill="url(#paint17_linear)" d="M246.224 24.151c1.061 1.319-.104 2.649.746 2.978 1.116.455 2.371.425 3.463-.084-1.192-1.24-2.624-2.224-4.209-2.894z"/>
        <path fill="#F2E2D3" d="M105.424 227.865l246.267.807v-10.031l-246.267-.808v10.032z"/>
        <path fill="#706A65" d="M11.361 260.074l94-32.209 246.33.807-101.672 28.918-238.658 2.484z"/>
        <path fill="#97958B" d="M11.361 260.074l94-32.209v-10.032l-94 32.21v10.031z"/>
        <path fill="#F2E2D3" d="M247.584 259.671l59.732.808v-10.032l-59.732-.808v10.032z"/>
        <path fill="#706A65" d="M213.539 271.38l33.986-11.709 59.795.808-41.657 8.416-52.124 2.485z"/>
        <path fill="#97958B" d="M213.539 271.38l33.986-11.709v-10.032l-33.986 11.708v10.033z"/>
        <path fill="#F2E2D3" d="M431.278 344.052l59.732.808v-10.032l-59.732-.807v10.031z"/>
        <path fill="#706A65" d="M397.233 355.762l33.986-11.709 59.794.808-41.656 8.416-52.124 2.485z"/>
        <path fill="#97958B" d="M397.233 355.762l33.986-11.709v-10.032l-33.986 11.708v10.033z"/>
        <path fill="url(#paint18_linear)" d="M407.762 304.177c.743 2.06 1.203 4.211 1.371 6.394.178 1.952.178 3.917 0 5.869 0 0-18.742-2.235-28.812-3.354-.033-2.061 1.182-3.937 3.077-4.751 3.357-1.677 11.748-7.697 11.748-7.697s11.243-2.851 12.616 3.539z"/>
        <path fill="url(#paint19_linear)" d="M412.009 183.906s3.152 5.573-.959 21.648c-2.24 8.76-5.174 32.158-6.109 41.696-.935 9.537 2.821 56.927 2.821 56.927s-4.418.597-12.616-3.539c0 0-8.358-41.837-9.427-53.012-1.707-17.869-6.595-64.155-6.595-64.155 5.042-1.504 10.188-2.632 15.396-3.373 7.519-.949 17.489 3.808 17.489 3.808z"/>
        <path fill="url(#paint20_linear)" d="M332.793 277.534s-1.016-.419-.816 2.165c.127 1.391.127 2.79 0 4.181 0 0-14.073-1.593-21.244-2.389-.025-1.468.841-2.805 2.191-3.384 2.391-1.195 9.566-3.093 9.566-3.093s9.328-2.031 10.303 2.52z"/>
        <path fill="url(#paint21_linear)" d="M403.231 185.744s-.727 12.238-9.848 18.895c-9.121 6.658-40.316 21.814-43.591 25.429-3.274 3.614-17.505 47.199-17.505 47.199s-10.238 1.712-13.042-1.142c0 0 10.809-47.862 13.709-55.119 3.04-7.608 21.607-27.97 27.688-32.345 3.613-2.591 7.025-5.452 10.204-8.559l32.385 5.642z"/>
        <path fill="url(#paint22_linear)" d="M373.944 126.073s4.925 2.037 5.165 9.225c.24 7.187-4.021 10.544-4.021 10.544.274.058-31.483-8.241-37.343-11.262-14.867-7.668-36.335-20.395-38.167-23.51 0 0 0-5.811 4.467-7.486 0 0 32.784 14.702 36.335 15.9 3.552 1.198 16.949 2.509 33.564 6.589z"/>
        <path fill="#E3A784" d="M362.28 94.91s-2.028 7.667-2.828 12.14c-.8 4.473-1.119 8.307 0 9.265 1.118.959 5.755 1.918 6.555 2.237.799.32 3.036 6.709 3.036 6.709s4.157 7.84 11.833 5.271c3.86-1.291 2.398-6.39 2.398-6.39-1.272-2.477-1.982-5.204-2.079-7.987-.159-4.633-1.594-16.933-1.594-16.933L362.28 94.91z"/>
        <path fill="#502C16" d="M362.28 94.91c.689.958 1.93 1.717 5.045 1.957 2.282.175.16 3.773-1.918 5.213-2.079 1.44-.135 3.533-.135 3.533s2.333-3.195 3.932-2.397c1.598.798 2.717 3.994-1.12 5.751 0 0 3.357 3.354 3.837 6.55 0 0 3.517 3.035 9.272.639 0 0 2.078-5.115 4.636-10.863 2.558-5.747 1.439-9.584-3.356-9.745 0 0 .48-4.34-6.395-7.216-6.874-2.876-10.231-.291-12.789 2.744-2.557 3.034-1.009 3.833-1.009 3.833z"/>
        <path fill="url(#paint23_linear)" d="M403.323 148.744c4.077 13.898 8.633 36.183 8.633 36.183s-23.26 9.344-42.204-4.793c0 0-.959-1.917-2.878-12.221-1.918-10.304-3.149-40.915 2.167-42.651 6.859-2.24 9.237-1.418 14.499-3.557 3.243-1.32 15.707 13.141 19.783 27.039z"/>
        <path fill="url(#paint24_linear)" d="M403.323 148.744c-2.819-9.608-9.641-19.479-14.657-24.223-5.659 9.567-12.54 34.838-6.261 61.807 15.287 4.309 29.553-1.401 29.553-1.401s-4.558-22.285-8.635-36.183z"/>
        <path fill="#F2E2D3" d="M313.203 287.631l59.732.808v-10.032l-59.732-.808v10.032z"/>
        <path fill="#706A65" d="M279.158 299.34l33.986-11.709 59.793.808-41.656 8.416-52.123 2.485z"/>
        <path fill="#97958B" d="M279.158 299.34l33.986-11.709v-10.032l-33.986 11.709v10.032z"/>
        <path fill="#F2E2D3" d="M371.292 317.775l59.732.807V308.55l-59.732-.807v10.032z"/>
        <path fill="#706A65" d="M337.246 329.483l33.986-11.708 59.794.807-41.656 8.417-52.124 2.484z"/>
        <path fill="#97958B" d="M337.246 329.483l33.986-11.708v-10.032l-33.986 11.709v10.031z"/>
        <path fill="url(#paint25_linear)" d="M420.606 206.296c.77-5.325-.265-6.463-2.382-8.181-2.028-1.645-8.673-.425-8.657 4.98l-2.967-.749s2.574-7.51 7.402-6.699c8.921 1.501 10.692 3.949 9.123 11.121l-2.519-.472z"/>
        <path fill="url(#paint26_linear)" d="M430.7 242.461l-46.373-11.717 8.23-32.523 46.372 11.717-8.229 32.523z"/>
        <path fill="url(#paint27_linear)" d="M436.913 218.168l-24.703.075-21.588-11.984 2.15-8.348 46.291 11.91-2.15 8.347z"/>
        <path fill="url(#paint28_linear)" d="M413.777 221.696l-2.256.893c-.272.107-.582.027-.767-.198l-1.545-1.87c-.137-.166-.187-.388-.133-.597l1.579-6.127c.044-.173.155-.322.309-.413.155-.09.339-.116.512-.071l3.8.977c.174.044.322.156.413.31.091.153.117.337.071.51l-1.578 6.128c-.053.209-.204.379-.405.458z"/>
        <path fill="#E3A784" d="M421.42 187.451l-8.48-.022c.101 2.34.071 4.684-.092 7.02-.923.068-1.032.79-1.472 2.187-.474 1.5-1.248 3.196-.755 4.025.492.829 1.492.394 2.279.949.787.554 1.739.446 3.011 1.025 1.273.58 2.199.234 3.525.567 1.326.333 3.31.107 3.471-3.447.091-1.962-1.267-10.283-1.487-12.304z"/>
        <path fill="url(#paint29_linear)" d="M382.859 124.114c9.468-2.496 26.654 20.732 30.28 30.674 3.626 9.942 9.582 35.541 9.582 35.541-3.41.32-6.845.246-10.238-.221-3.551-6.849-6.374-14.051-8.422-21.489-1.659-5.874-14.161-23.255-20.519-26.607-6.359-3.353-9.151-15.667-.683-17.898z"/>
        <path fill="url(#paint30_linear)" d="M371.091 123.301l.56 2.795 13.985-4.053-3.216-2.655-11.329 3.913z"/>
        <path fill="url(#paint31_linear)" d="M365.777 131.827l-1.399-5.172 6.713-3.354.56 2.795-5.874 5.731z"/>
    </g>
    <defs>
        <linearGradient id="paint0_linear" x1="207.622" x2="207.622" y1="187.956" y2="112.668" gradientUnits="userSpaceOnUse">
            <stop stop-color="#fff" stop-opacity=".01"/>
            <stop offset=".071" stop-color="#fff" stop-opacity=".169"/>
            <stop offset=".164" stop-color="#fff" stop-opacity=".365"/>
            <stop offset=".261" stop-color="#fff" stop-opacity=".533"/>
            <stop offset=".361" stop-color="#fff" stop-opacity=".678"/>
            <stop offset=".465" stop-color="#fff" stop-opacity=".796"/>
            <stop offset=".575" stop-color="#fff" stop-opacity=".886"/>
            <stop offset=".693" stop-color="#fff" stop-opacity=".949"/>
            <stop offset=".824" stop-color="#fff" stop-opacity=".988"/>
            <stop offset=".995" stop-color="#fff"/>
        </linearGradient>
        <linearGradient id="paint1_linear" x1="337.052" x2="337.052" y1="393.062" y2="324.098" gradientUnits="userSpaceOnUse">
            <stop stop-color="#fff" stop-opacity=".01"/>
            <stop offset=".071" stop-color="#fff" stop-opacity=".169"/>
            <stop offset=".164" stop-color="#fff" stop-opacity=".365"/>
            <stop offset=".261" stop-color="#fff" stop-opacity=".533"/>
            <stop offset=".361" stop-color="#fff" stop-opacity=".678"/>
            <stop offset=".465" stop-color="#fff" stop-opacity=".796"/>
            <stop offset=".575" stop-color="#fff" stop-opacity=".886"/>
            <stop offset=".693" stop-color="#fff" stop-opacity=".949"/>
            <stop offset=".824" stop-color="#fff" stop-opacity=".988"/>
            <stop offset=".995" stop-color="#fff"/>
        </linearGradient>
        <linearGradient id="paint2_linear" x1="464.845" x2="464.845" y1="65.047" y2="1.24" gradientUnits="userSpaceOnUse">
            <stop stop-color="#fff" stop-opacity=".01"/>
            <stop offset=".071" stop-color="#fff" stop-opacity=".169"/>
            <stop offset=".164" stop-color="#fff" stop-opacity=".365"/>
            <stop offset=".261" stop-color="#fff" stop-opacity=".533"/>
            <stop offset=".361" stop-color="#fff" stop-opacity=".678"/>
            <stop offset=".465" stop-color="#fff" stop-opacity=".796"/>
            <stop offset=".575" stop-color="#fff" stop-opacity=".886"/>
            <stop offset=".693" stop-color="#fff" stop-opacity=".949"/>
            <stop offset=".824" stop-color="#fff" stop-opacity=".988"/>
            <stop offset=".995" stop-color="#fff"/>
        </linearGradient>
        <linearGradient id="paint3_linear" x1="-1987.14" x2="-1567.08" y1="889.702" y2="890.58" gradientUnits="userSpaceOnUse">
            <stop stop-color="#343A44"/>
            <stop offset=".301" stop-color="#232C3D"/>
            <stop offset=".639" stop-color="#172339"/>
            <stop offset="1" stop-color="#142138"/>
        </linearGradient>
        <linearGradient id="paint4_linear" x1="42.795" x2="91.321" y1="220.756" y2="220.756" gradientUnits="userSpaceOnUse">
            <stop stop-color="#343A44"/>
            <stop offset=".301" stop-color="#232C3D"/>
            <stop offset=".639" stop-color="#172339"/>
            <stop offset="1" stop-color="#142138"/>
        </linearGradient>
        <linearGradient id="paint5_linear" x1="42.901" x2="33.407" y1="45.684" y2="16.715" gradientUnits="userSpaceOnUse">
            <stop stop-color="#fff" stop-opacity=".01"/>
            <stop offset=".236" stop-color="#F6F3F4" stop-opacity=".22"/>
            <stop offset=".769" stop-color="#E1D5D9" stop-opacity=".761"/>
            <stop offset=".994" stop-color="#D8C9CE"/>
        </linearGradient>
        <linearGradient id="paint6_linear" x1="5.587" x2="53.729" y1="97.536" y2="97.536" gradientUnits="userSpaceOnUse">
            <stop offset=".288" stop-color="#fff"/>
            <stop offset=".337" stop-color="#FBFCFE"/>
            <stop offset="1" stop-color="#CFE1F3"/>
        </linearGradient>
        <linearGradient id="paint7_linear" x1="567.616" x2="627.233" y1="130.524" y2="130.969" gradientUnits="userSpaceOnUse">
            <stop offset=".288" stop-color="#fff"/>
            <stop offset=".337" stop-color="#FBFCFE"/>
            <stop offset="1" stop-color="#CFE1F3"/>
        </linearGradient>
        <linearGradient id="paint8_linear" x1="285.093" x2="296.075" y1="59.207" y2="60.543" gradientUnits="userSpaceOnUse">
            <stop offset=".288" stop-color="#fff"/>
            <stop offset=".337" stop-color="#FBFCFE"/>
            <stop offset="1" stop-color="#CFE1F3"/>
        </linearGradient>
        <linearGradient id="paint9_linear" x1="-49.638" x2="-49.638" y1="86.323" y2="97.944" gradientUnits="userSpaceOnUse">
            <stop offset=".288" stop-color="#fff"/>
            <stop offset=".337" stop-color="#FBFCFE"/>
            <stop offset="1" stop-color="#CFE1F3"/>
        </linearGradient>
        <linearGradient id="paint10_linear" x1="223.175" x2="285.198" y1="101.901" y2="101.901" gradientUnits="userSpaceOnUse">
            <stop stop-color="#3B7AA8"/>
            <stop offset=".29" stop-color="#2B6E9B"/>
            <stop offset=".634" stop-color="#1F6692"/>
            <stop offset="1" stop-color="#1C6490"/>
        </linearGradient>
        <linearGradient id="paint11_linear" x1="158.558" x2="214.743" y1="103.31" y2="103.31" gradientUnits="userSpaceOnUse">
            <stop stop-color="#3B7AA8"/>
            <stop offset=".29" stop-color="#2B6E9B"/>
            <stop offset=".634" stop-color="#1F6692"/>
            <stop offset="1" stop-color="#1C6490"/>
        </linearGradient>
        <linearGradient id="paint12_linear" x1="194.436" x2="243.201" y1="108.455" y2="108.455" gradientUnits="userSpaceOnUse">
            <stop stop-color="#3B7AA8"/>
            <stop offset=".29" stop-color="#2B6E9B"/>
            <stop offset=".634" stop-color="#1F6692"/>
            <stop offset="1" stop-color="#1C6490"/>
        </linearGradient>
        <linearGradient id="paint13_linear" x1="66.445" x2="92.004" y1="228.994" y2="228.994" gradientUnits="userSpaceOnUse">
            <stop stop-color="#343A44"/>
            <stop offset=".301" stop-color="#232C3D"/>
            <stop offset=".639" stop-color="#172339"/>
            <stop offset="1" stop-color="#142138"/>
        </linearGradient>
        <linearGradient id="paint14_linear" x1="34.092" x2="58.351" y1="252.655" y2="252.655" gradientUnits="userSpaceOnUse">
            <stop stop-color="#343A44"/>
            <stop offset=".301" stop-color="#232C3D"/>
            <stop offset=".639" stop-color="#172339"/>
            <stop offset="1" stop-color="#142138"/>
        </linearGradient>
        <linearGradient id="paint15_linear" x1="83.309" x2="94.975" y1="92.416" y2="92.416" gradientUnits="userSpaceOnUse">
            <stop offset=".288" stop-color="#fff"/>
            <stop offset=".337" stop-color="#FBFCFE"/>
            <stop offset="1" stop-color="#CFE1F3"/>
        </linearGradient>
        <linearGradient id="paint16_linear" x1="144.86" x2="205.696" y1="90.036" y2="90.036" gradientUnits="userSpaceOnUse">
            <stop stop-color="#3B7AA8"/>
            <stop offset=".29" stop-color="#2B6E9B"/>
            <stop offset=".634" stop-color="#1F6692"/>
            <stop offset="1" stop-color="#1C6490"/>
        </linearGradient>
        <linearGradient id="paint17_linear" x1="272.583" x2="272.309" y1="40.885" y2="33.654" gradientUnits="userSpaceOnUse">
            <stop stop-color="#fff" stop-opacity=".01"/>
            <stop offset=".305" stop-color="#E1DFE4" stop-opacity=".286"/>
            <stop offset=".991" stop-color="#9892A4"/>
        </linearGradient>
        <linearGradient id="paint18_linear" x1="13.326" x2="22.591" y1="313.677" y2="342.682" gradientUnits="userSpaceOnUse">
            <stop stop-color="#343A44"/>
            <stop offset=".301" stop-color="#232C3D"/>
            <stop offset=".639" stop-color="#172339"/>
            <stop offset="1" stop-color="#142138"/>
        </linearGradient>
        <linearGradient id="paint19_linear" x1="657.146" x2="290.435" y1="-392.269" y2="-398.211" gradientUnits="userSpaceOnUse">
            <stop stop-color="#343A44"/>
            <stop offset=".301" stop-color="#232C3D"/>
            <stop offset=".639" stop-color="#172339"/>
            <stop offset="1" stop-color="#142138"/>
        </linearGradient>
        <linearGradient id="paint20_linear" x1="69.567" x2="73.008" y1="279.318" y2="314.584" gradientUnits="userSpaceOnUse">
            <stop stop-color="#343A44"/>
            <stop offset=".301" stop-color="#232C3D"/>
            <stop offset=".639" stop-color="#172339"/>
            <stop offset="1" stop-color="#142138"/>
        </linearGradient>
        <linearGradient id="paint21_linear" x1="35.961" x2="119.947" y1="277.776" y2="277.776" gradientUnits="userSpaceOnUse">
            <stop stop-color="#343A44"/>
            <stop offset=".301" stop-color="#232C3D"/>
            <stop offset=".639" stop-color="#172339"/>
            <stop offset="1" stop-color="#142138"/>
        </linearGradient>
        <linearGradient id="paint22_linear" x1="60.079" x2="139.62" y1="145.842" y2="145.842" gradientUnits="userSpaceOnUse">
            <stop offset=".288" stop-color="#fff"/>
            <stop offset=".337" stop-color="#FBFCFE"/>
            <stop offset="1" stop-color="#CFE1F3"/>
        </linearGradient>
        <linearGradient id="paint23_linear" x1="350.125" x2="426.403" y1="236.582" y2="215.643" gradientUnits="userSpaceOnUse">
            <stop offset=".288" stop-color="#fff"/>
            <stop offset=".337" stop-color="#FBFCFE"/>
            <stop offset="1" stop-color="#CFE1F3"/>
        </linearGradient>
        <linearGradient id="paint24_linear" x1="232.604" x2="395.074" y1="352.212" y2="343.856" gradientUnits="userSpaceOnUse">
            <stop offset=".288" stop-color="#fff"/>
            <stop offset=".337" stop-color="#FBFCFE"/>
            <stop offset="1" stop-color="#CFE1F3"/>
        </linearGradient>
        <linearGradient id="paint25_linear" x1="25.476" x2="25.476" y1="183.878" y2="175.033" gradientUnits="userSpaceOnUse">
            <stop stop-color="#202D44"/>
            <stop offset=".208" stop-color="#27344B"/>
            <stop offset=".531" stop-color="#3D4A5F"/>
            <stop offset=".926" stop-color="#616E80"/>
            <stop offset="1" stop-color="#697687"/>
        </linearGradient>
        <linearGradient id="paint26_linear" x1="769.125" x2="760.899" y1="314.715" y2="347.247" gradientUnits="userSpaceOnUse">
            <stop stop-color="#202D44"/>
            <stop offset=".208" stop-color="#27344B"/>
            <stop offset=".531" stop-color="#3D4A5F"/>
            <stop offset=".926" stop-color="#616E80"/>
            <stop offset="1" stop-color="#697687"/>
        </linearGradient>
        <linearGradient id="paint27_linear" x1="445.07" x2="445.07" y1="201.733" y2="186.891" gradientUnits="userSpaceOnUse">
            <stop stop-color="#202D44"/>
            <stop offset=".208" stop-color="#27344B"/>
            <stop offset=".531" stop-color="#3D4A5F"/>
            <stop offset=".926" stop-color="#616E80"/>
            <stop offset="1" stop-color="#697687"/>
        </linearGradient>
        <linearGradient id="paint28_linear" x1="430.697" x2="430.697" y1="206.246" y2="197.144" gradientUnits="userSpaceOnUse">
            <stop offset=".006" stop-color="#EBC17D"/>
            <stop offset=".158" stop-color="#E2B46B"/>
            <stop offset=".459" stop-color="#CB933F"/>
            <stop offset=".596" stop-color="#C08329"/>
            <stop offset=".839" stop-color="#DBB784"/>
            <stop offset="1" stop-color="#EEDCC3"/>
        </linearGradient>
        <linearGradient id="paint29_linear" x1="-464.114" x2="-378.247" y1="158.219" y2="210.827" gradientUnits="userSpaceOnUse">
            <stop offset=".288" stop-color="#fff"/>
            <stop offset=".337" stop-color="#FBFCFE"/>
            <stop offset="1" stop-color="#CFE1F3"/>
        </linearGradient>
        <linearGradient id="paint30_linear" x1="418.045" x2="419.767" y1="156.119" y2="113.665" gradientUnits="userSpaceOnUse">
            <stop offset=".288" stop-color="#fff"/>
            <stop offset=".337" stop-color="#FBFCFE"/>
            <stop offset="1" stop-color="#CFE1F3"/>
        </linearGradient>
        <linearGradient id="paint31_linear" x1="364.465" x2="374.203" y1="136.962" y2="131.204" gradientUnits="userSpaceOnUse">
            <stop offset=".288" stop-color="#fff"/>
            <stop offset=".337" stop-color="#FBFCFE"/>
            <stop offset="1" stop-color="#CFE1F3"/>
        </linearGradient>
    </defs>
</svg>
