<svg xmlns="http://www.w3.org/2000/svg" width="48" height="34" fill="none" viewBox="0 0 48 34">
    <path fill="#002366" fill-rule="evenodd" d="M7.477 0c-.43 0-.843.238-1.032.61L.117 13.157c-.076.148-.117.31-.117.475 0 .202.032.72.258 1.13.68 1.242 3.03 2.091 5.953 2.215v15.938c0 .6.176 1.085.797 1.085h33c.622 0 1.453-.485 1.453-1.085V17.068c2.236-.072 6-.517 6-2.645v-.498c0-.158-.189-.31-.258-.452L40.852.633C40.667.25 40.258 0 39.82 0H7.477z" clip-rule="evenodd"/>
    <path fill="#fff" fill-rule="evenodd" d="M8.18 2.17h30.937l6.094 12.004v.045c-.748.258-1.986.676-4.5.679-.007-.003-.017.002-.023 0-.11-.035-.23-.068-.352-.068-.111 0-.227.016-.328.045-2.064-.074-3.478-.443-3.844-.7-.196-1.345-2.125-1.32-2.32.022-.425.278-1.98.7-4.453.7-2.48 0-4.06-.455-4.477-.745-.204-1.335-2.101-1.293-2.297.045-.399.26-1.85.7-4.453.7-2.478 0-4.06-.453-4.477-.745-.201-1.34-2.095-1.324-2.296 0-.38.237-1.721.634-4.055.678-.14.002-.276 0-.422 0-2.777 0-4.279-.724-4.617-1.04L8.18 2.17zM12.54 16.005c.127.078.278.137.42.204v10.919c0 .6.177 1.085.798 1.085h19.5c.622 0 1.453-.486 1.453-1.085V16.23c.13-.06.26-.111.375-.18 1.084.642 2.8.858 4.125.95V31.83H8.46V16.955c1.372-.09 3.018-.336 4.078-.95z" clip-rule="evenodd"/>
    <path fill="#002366" fill-rule="evenodd" d="M7.477 0c-.43 0-.843.238-1.032.61L.117 13.157c-.076.148-.117.31-.117.475 0 .202.032.72.258 1.13.68 1.242 3.03 2.091 5.953 2.215v15.938c0 .6.176 1.085.797 1.085h33c.622 0 1.453-.485 1.453-1.085V17.068c2.236-.072 6-.517 6-2.645v-.498c0-.158-.189-.31-.258-.452L40.852.633C40.667.25 40.258 0 39.82 0H7.477zm.703 2.17h30.937l6.094 12.004v.045c-.748.258-1.986.676-4.5.679-.007-.003-.017.002-.023 0-.11-.035-.23-.068-.352-.068-.111 0-.227.016-.328.045-2.064-.074-3.478-.443-3.844-.7-.196-1.345-2.125-1.32-2.32.022-.425.278-1.98.7-4.453.7-2.48 0-4.06-.455-4.477-.745-.204-1.335-2.101-1.293-2.297.045-.399.26-1.85.7-4.453.7-2.478 0-4.06-.453-4.477-.745-.201-1.34-2.095-1.324-2.296 0-.38.237-1.721.634-4.055.678-.14.002-.276 0-.422 0-2.777 0-4.279-.724-4.617-1.04L8.18 2.17zm4.36 13.835c.127.078.278.137.42.204v10.919c0 .6.177 1.085.798 1.085h19.5c.622 0 1.453-.486 1.453-1.085V16.23c.13-.06.26-.111.375-.18 1.084.642 2.8.858 4.125.949v14.83H8.46V16.955c1.372-.09 3.018-.336 4.078-.95zm11.273.023c1.594.941 4.491 1.04 5.601 1.04.757 0 1.915-.03 3.047-.204v9.179H15.21v-9.201c1.18.185 2.34.226 2.953.226 1.412 0 4.148-.137 5.648-1.04z" clip-rule="evenodd"/>
</svg>
