<svg xmlns="http://www.w3.org/2000/svg" width="42" height="51" fill="none" viewBox="0 0 42 51">
    <path fill="#002366" d="M20.965 0c-.644 0-1.167.512-1.167 1.143-2.917.296-6.418 2.011-8.095 4.59-1.312 2.062-1.81 3.839-2.17 5.93-1.566-.045-1.987 1.208-1.987 2.984.1 1.592.8 3.445 2.243 3.965.495 2.012 1.35 4.016 2.516 5.787 1.974 3.003 4.96 5.383 8.678 5.34 3.721-.041 6.69-2.43 8.643-5.43 1.132-1.739 1.963-3.705 2.461-5.68 1.646-.68 2.283-2.463 2.297-3.982-.006-1.766-.284-2.858-1.914-2.983-.246-2.024-.812-4.098-1.987-5.913-2.517-3.168-5.449-4.303-8.351-4.608C22.132.512 21.61 0 20.965 0z"/>
    <path fill="#fff" d="M20.965 3.447c4.068-.005 6.205 1.444 7.548 3.52.579.892.977 1.928 1.258 3.018-.74.354-1.202.975-1.64 1.554-.671-.706-1.474-1.298-2.444-1.661-1.432-.537-3.089-.777-4.74-.768-1.651.008-3.293.272-4.722.821-.97.373-1.774.968-2.444 1.68-.445-.573-.934-1.205-1.513-1.519.322-1.114.771-2.174 1.386-3.09 1.413-2.105 3.558-3.56 7.311-3.555z"/>
    <path fill="#fff" d="M20.965 11.396c1.404-.008 2.804.22 3.884.625 1.08.404 1.781.972 2.042 1.536.784 1.088 1.918.612 2.735-.196.244-.273.435-.513.601-.733.053.602.073 1.203.073 1.786 0 2.704-.959 6.074-2.643 8.663-1.685 2.59-3.974 4.346-6.692 4.376-2.688.03-5.007-1.697-6.71-4.286-1.702-2.59-2.668-5.967-2.625-8.645.01-.582.041-1.186.11-1.787.16.216.328.455.546.697.997.873 1.872 1.156 2.735.197.262-.567.96-1.157 2.042-1.572 1.082-.416 2.498-.654 3.902-.661z"/>
    <path fill="#002366" d="M13.143 27.453c-4.005.796-7.278 2.384-9.572 4.627-2.29 2.238-3.557 5.155-3.519 8.395.275 2.585-.424 5.41.256 7.555.327.966 1.076 1.837 2.115 2.269 1.03.428 2.28.537 3.92.518 9.707.061 19.424.045 29.135 0 1.672 0 2.934-.115 3.975-.536 1.04-.421 1.81-1.259 2.151-2.215.684-1.913.274-4.14.274-7.502v-.018c0-3.265-1.252-6.194-3.537-8.448-2.285-2.255-5.552-3.845-9.554-4.644-.468-.1-.989.118-1.24.518-1.14 1.819-3.78 2.893-6.545 2.893-2.767 0-5.452-1.062-6.637-2.893-.37-.378-.78-.479-1.222-.519z"/>
    <path fill="#fff" d="M11.63 30.222v6.359h-1.167c-.61 0-1.167.545-1.167 1.143v10.824c-.967-.006-2.174-.008-2.917-.017-.994-.08-2.127.024-3.045-.34-.52-.216-.654-.386-.82-.875-.332-.979-.128-3.35-.128-6.841-.091-2.454 1.277-5.232 2.826-6.788 1.75-1.954 4.356-2.85 6.418-3.465zM30.3 30.222c2.696.79 4.859 1.98 6.382 3.483 1.885 1.86 2.862 4.14 2.862 6.841 0 3.49.19 5.833-.146 6.77-.167.469-.296.62-.838.84-.543.219-1.55.375-3.082.375-.648.005-2.037-.006-2.844 0V37.724c0-.598-.556-1.143-1.167-1.143H30.3v-6.359zM13.964 30.794c1.878 1.59 4.46 2.357 7.038 2.357 2.555 0 5.114-.754 6.965-2.322v5.752H13.963v-5.787z"/>
</svg>
