<svg xmlns="http://www.w3.org/2000/svg" width="14" height="14" fill="none" viewBox="0 0 14 14">
    <path fill="#062A42" d="M.068 5.724C.028 6.065 0 6.412 0 6.765 0 9.867 1.632 12.568 4.05 14l.45-.99V6.244l-.5-.52H.068zM14 6.244c0-.52-.5-1.041-1-1.041H8.998c.249-1.042.5-2.08.5-2.602C9.5 1.56 9 .521 8.75.26 8.745.253 8.501 0 8 0c-.748 0-.748.78-.748.78 0 .014-.25 1.3-.25 1.821 0 .521-1 2.602-1.5 3.123l-.5.259v7.286l.5.258H11c1.001 0 1.502-.52 1.502-1.041 0-.521-.5-1.042-1.001-1.042 1 0 1.501-.52 1.501-1.042 0-.52-.5-1.041-1-1.041 1 0 1.5-.521 1.5-1.042 0-.52-.5-1.042-1-1.042C13.5 7.287 14 6.765 14 6.245z"/>
</svg>
